# This file uses centimeters as units for non-parametric coordinates.

mtllib Ground.mtl
g default
v -68.542848 -0.476919 5000.000000
v -67.542848 -0.476919 5000.000000
v -68.542848 74.523087 5000.000000
v -67.542848 74.523087 5000.000000
v -68.542848 74.523087 -5000.000000
v -67.542848 74.523087 -5000.000000
v -68.542848 -0.493819 -5000.000000
v -67.553224 -0.488460 -5000.000000
v -68.542848 0.509015 -5000.000000
v -68.542848 0.517465 5000.000000
v -67.542848 0.517465 5000.000000
v -67.553224 0.508733 -5000.000000
v -67.563600 -0.500000 5000.000000
v 7.436400 -0.500000 5000.000000
v -67.563600 0.500000 5000.000000
v 7.436400 0.500000 5000.000000
v 7.447485 0.477236 -5000.000000
v 7.447485 -0.489786 -5000.000000
v 7.458575 -0.479572 5000.000000
v 8.458575 -0.479572 5000.000000
v 7.458575 74.520424 5000.000000
v 8.458575 74.520424 5000.000000
v 7.458575 74.520424 -5000.000000
v 8.458575 74.520424 -5000.000000
v 8.458575 -0.491162 -5000.000000
v 7.458575 0.454471 5000.000000
v 8.458575 0.454471 5000.000000
v 8.458575 0.477847 -5000.000000
vt 0.375000 0.000000
vt 0.625000 0.000000
vt 0.625000 0.250000
vt 0.375000 0.250000
vt 0.625000 0.500000
vt 0.375000 0.500000
vt 0.625000 0.750000
vt 0.375000 0.750000
vt 0.625000 1.000000
vt 0.375000 1.000000
vt 0.875000 0.000000
vt 0.875000 0.250000
vt 0.125000 0.000000
vt 0.125000 0.250000
vt 0.125000 0.003315
vt 0.375000 0.746685
vt 0.375000 0.003315
vt 0.625000 0.003315
vt 0.625000 0.746685
vt 0.875000 0.003315
vt 0.375000 0.000000
vt 0.625000 0.000000
vt 0.625000 0.250000
vt 0.375000 0.250000
vt 0.625000 0.500000
vt 0.375000 0.500000
vt 0.625000 0.750000
vt 0.375000 0.750000
vt 0.625000 1.000000
vt 0.375000 1.000000
vt 0.875000 0.000000
vt 0.875000 0.250000
vt 0.125000 0.000000
vt 0.125000 0.250000
vt 0.375000 0.003113
vt 0.625000 0.003113
vt 0.625000 0.250000
vt 0.375000 0.250000
vt 0.625000 0.500000
vt 0.375000 0.500000
vt 0.625000 0.746887
vt 0.375000 0.746887
vt 0.375000 0.750000
vt 0.625000 0.750000
vt 0.625000 1.000000
vt 0.375000 1.000000
vt 0.875000 0.003113
vt 0.875000 0.250000
vt 0.125000 0.003113
vt 0.125000 0.250000
vt 0.125000 0.000000
vt 0.375000 0.000000
vt 0.625000 0.000000
vt 0.875000 0.000000
vn 0.000000 0.000000 1.000000
vn 0.000000 0.000000 1.000000
vn 0.000000 0.000000 1.000000
vn 0.000000 0.000000 1.000000
vn 0.000000 1.000000 0.000000
vn 0.000000 1.000000 0.000000
vn 0.000000 1.000000 0.000000
vn 0.000000 1.000000 0.000000
vn 0.000000 0.000000 -1.000000
vn 0.000000 0.000000 -1.000000
vn -0.000007 0.000000 -1.000000
vn -0.000007 0.000000 -1.000000
vn 0.002694 -0.999996 0.000001
vn 0.002694 -0.999996 0.000001
vn 0.002694 -0.999996 0.000001
vn 0.002694 -0.999996 0.000001
vn 1.000000 -0.000069 -0.000001
vn 1.000000 -0.000069 -0.000001
vn 1.000000 -0.000070 -0.000001
vn 1.000000 -0.000070 -0.000001
vn -1.000000 0.000000 0.000000
vn -1.000000 0.000000 0.000000
vn -1.000000 0.000000 0.000000
vn -1.000000 0.000000 0.000000
vn -1.000000 0.000000 0.000000
vn -1.000000 0.000000 0.000000
vn 0.000000 0.000000 1.000000
vn 0.000000 0.000000 1.000000
vn 1.000000 0.000000 -0.000001
vn 1.000000 0.000000 -0.000001
vn -0.000493 0.000000 -1.000000
vn -0.000493 0.000000 -1.000000
vn 0.000000 0.000000 1.000000
vn 0.000000 0.000000 1.000000
vn 0.000000 0.000000 1.000000
vn 0.000000 0.000000 1.000000
vn 0.000210 1.000000 -0.000001
vn 0.000210 1.000000 -0.000001
vn 0.000210 1.000000 -0.000001
vn 0.000210 1.000000 -0.000001
vn 0.000000 0.000000 -1.000000
vn 0.000000 0.000000 -1.000000
vn 0.000000 0.000000 -1.000000
vn 0.000000 0.000000 -1.000000
vn -0.000009 -1.000000 -0.000001
vn -0.000009 -1.000000 -0.000001
vn -0.000009 -1.000000 -0.000001
vn -0.000009 -1.000000 -0.000001
vn 1.000000 0.000000 0.000001
vn 1.000000 0.000000 0.000001
vn 1.000000 0.000000 0.000001
vn 1.000000 0.000000 0.000001
vn -1.000000 0.000000 -0.000001
vn -1.000000 0.000000 -0.000001
vn -1.000000 0.000000 -0.000001
vn -1.000000 0.000000 -0.000001
vn 0.000000 0.000000 1.000000
vn 0.000000 0.000000 1.000000
vn 0.000000 0.000000 1.000000
vn 0.000000 0.000000 1.000000
vn 0.000000 1.000000 0.000000
vn 0.000000 1.000000 0.000000
vn 0.000000 1.000000 0.000000
vn 0.000000 1.000000 0.000000
vn -0.000420 0.000000 -1.000000
vn -0.000420 0.000000 -1.000000
vn -0.000414 0.000000 -1.000000
vn -0.000414 0.000000 -1.000000
vn -0.000684 -1.000000 0.000001
vn -0.000684 -1.000000 0.000001
vn -0.000684 -1.000000 0.000001
vn -0.000684 -1.000000 0.000001
vn 1.000000 0.000000 0.000000
vn 1.000000 0.000000 0.000000
vn 1.000000 0.000000 0.000000
vn 1.000000 0.000000 0.000000
vn -1.000000 0.000074 0.000001
vn -1.000000 0.000074 0.000001
vn -1.000000 0.000075 0.000001
vn -1.000000 0.000075 0.000001
vn -1.000000 0.000000 0.000001
vn -1.000000 0.000000 0.000001
vn 0.000000 0.000000 1.000000
vn 0.000000 0.000000 1.000000
vn 1.000000 0.000000 0.000000
vn 1.000000 0.000000 0.000000
vn 0.000000 0.000000 -1.000000
vn 0.000000 0.000000 -1.000000
s 1
g polySurface1
usemtl initialShadingGroup
f 10/17/1 11/18/2 4/3/3 3/4/4
s off
f 3/4/5 4/3/6 6/5/7 5/6/8
s 2
f 5/6/9 6/5/10 12/19/11 9/16/12
s off
f 7/8/13 8/7/14 2/9/15 1/10/16
s 3
f 11/18/17 12/20/18 6/12/19 4/3/20
s 4
f 9/15/21 10/17/22 3/4/23 5/14/24
f 7/13/25 1/1/26 10/17/22 9/15/21
s 1
f 1/1/27 2/2/28 11/18/2 10/17/1
s 3
f 2/2/29 8/11/30 12/20/18 11/18/17
s 2
f 9/16/12 12/19/11 8/7/31 7/8/32
s off
f 13/21/33 14/22/34 16/23/35 15/24/36
f 15/24/37 16/23/38 17/25/39 12/26/40
f 12/26/41 17/25/42 18/27/43 8/28/44
f 8/28/45 18/27/46 14/29/47 13/30/48
f 14/22/49 18/31/50 17/32/51 16/23/52
f 8/33/53 13/21/54 15/24/55 12/34/56
s 5
f 26/35/57 27/36/58 22/37/59 21/38/60
s off
f 21/38/61 22/37/62 24/39/63 23/40/64
s 6
f 23/40/65 24/39/66 28/41/67 17/42/68
s off
f 18/43/69 25/44/70 20/45/71 19/46/72
s 7
f 27/36/73 28/47/74 24/48/75 22/37/76
s 8
f 17/49/77 26/35/78 21/38/79 23/50/80
f 18/51/81 19/52/82 26/35/78 17/49/77
s 5
f 19/52/83 20/53/84 27/36/58 26/35/57
s 7
f 20/53/85 25/54/86 28/47/74 27/36/73
s 6
f 17/42/68 28/41/67 25/44/87 18/43/88
